<svg width="90" height="70" viewBox="0 0 90 70" fill="none" xmlns="http://www.w3.org/2000/svg">
<circle cx="44.8" cy="25" r="5" transform="rotate(-90 44.8 25)" fill="white"/>
<circle cx="44.8" cy="45" r="5" transform="rotate(-90 44.8 45)" fill="white"/>
<circle cx="44.8" cy="65" r="5" transform="rotate(-90 44.8 65)" fill="white"/>
<circle cx="24.8" cy="65" r="5" transform="rotate(-90 24.8 65)" fill="white"/>
<circle cx="24.8" cy="25" r="5" transform="rotate(-90 24.8 25)" fill="white"/>
<circle cx="24.8" cy="45" r="5" transform="rotate(-90 24.8 45)" fill="white"/>
<circle cx="84.8" cy="65" r="5" transform="rotate(-90 84.8 65)" fill="white"/>
<circle cx="84.8" cy="25" r="5" transform="rotate(-90 84.8 25)" fill="white"/>
<circle cx="84.8" cy="45" r="5" transform="rotate(-90 84.8 45)" fill="white"/>
<circle cx="64.8" cy="65" r="5" transform="rotate(-90 64.8 65)" fill="white"/>
<circle cx="64.8" cy="25" r="5" transform="rotate(-90 64.8 25)" fill="white"/>
<circle cx="64.8" cy="45" r="5" transform="rotate(-90 64.8 45)" fill="white"/>
<circle cx="5" cy="65" r="5" transform="rotate(-90 5 65)" fill="white"/>
<circle cx="5" cy="25" r="5" transform="rotate(-90 5 25)" fill="white"/>
<circle cx="5" cy="45" r="5" transform="rotate(-90 5 45)" fill="white"/>
<circle cx="85" cy="5" r="5" fill="white"/>
<circle cx="65" cy="5" r="5" fill="white"/>
<circle cx="5" cy="5" r="5" fill="white"/>
<circle cx="45" cy="5" r="5" fill="white"/>
<circle cx="25" cy="5" r="5" fill="white"/>
</svg>
